<svg width="32" height="32" viewBox="0 0 32 32" fill="none" xmlns="http://www.w3.org/2000/svg">
<rect width="31.88" height="32" fill="#86C5A5"/>
<path d="M15.4472 11.0943C14.9484 11.0499 14.5291 10.7036 14.2018 10.3796C13.6904 9.87444 13.2456 9.3725 12.8517 8.78161L12.3529 8.03189L11.7938 7.07566C11.6381 6.80881 11.5143 6.53242 11.3808 6.24651C10.8916 5.18228 10.6978 4.06721 11.4793 3.23806C11.9304 2.75837 12.6039 2.65989 13.1694 3.06016C13.6427 3.39691 14.0112 3.84484 14.4051 4.33725L14.5036 4.22288C14.3416 3.09829 15.4344 2.20243 16.6035 2.33268C17.6709 2.45022 17.9187 3.47316 18.0807 4.57551C18.4365 3.53669 18.9798 2.67578 20.0504 2.62177C20.7937 2.58365 21.3497 3.07923 21.5307 3.77813C21.8611 5.04885 21.0511 6.37041 20.2378 7.45371C19.9424 7.84763 19.6469 8.21296 19.3006 8.56241L18.9448 8.91821L18.0648 9.74419L17.6391 10.0968L16.7274 10.7195C16.4002 10.945 15.8601 11.1325 15.4472 11.0943Z" fill="#EFD97D"/>
<path d="M16.181 9.26135C16.181 9.26135 17.1627 24.0018 18.157 28.3413C18.408 29.4405 17.2421 30.3459 16.2509 29.809C16.2414 29.8026 16.2319 29.7995 16.2223 29.7931C15.857 29.5866 15.6251 29.2054 15.5806 28.7892C15.3169 26.216 14.2368 14.951 14.9548 9.67115L16.1779 9.26452L16.181 9.26135Z" fill="#EFD97D"/>
<path d="M7 9.8363C7 9.8363 14.6815 13.5754 16.7909 29.3515C16.7909 29.3515 7 24.0494 7 9.8363Z" fill="#EFD97D"/>
<path d="M24.9999 12.4191C24.9999 12.4191 18.8814 13.5754 16.772 29.3483C16.772 29.3483 24.9999 26.629 24.9999 12.4191Z" fill="#EFD97D"/>
</svg>
