<svg width="926" height="175" viewBox="0 0 926 175" fill="none" xmlns="http://www.w3.org/2000/svg">
<path d="M65.3407 60.2071C62.6435 59.9666 60.3758 58.094 58.6063 56.3417C55.8404 53.6102 53.4352 50.8958 51.305 47.7004L48.6077 43.646L45.5841 38.4749C44.7423 37.0318 44.0723 35.5371 43.3508 33.991C40.7051 28.2358 39.6571 22.2057 43.8833 17.7218C46.3228 15.1277 49.9649 14.5951 53.0229 16.7598C55.5827 18.5808 57.5755 21.0032 59.7057 23.666L60.2383 23.0475C59.3621 16.9659 65.272 12.1213 71.5941 12.8256C77.3665 13.4613 78.7065 18.9931 79.5826 24.9545C81.5067 19.3367 84.4445 14.6811 90.234 14.389C94.2541 14.1828 97.2605 16.8628 98.2397 20.6424C100.026 27.5142 95.6457 34.661 91.2477 40.5193C89.65 42.6495 88.0522 44.6252 86.1797 46.515L84.2555 48.4391L79.4967 52.9058L77.1946 54.8128L72.2641 58.18C70.4946 59.3997 67.5741 60.4133 65.3407 60.2071Z" fill="#EFD97D"/>
<path d="M69.3092 50.2946C69.3092 50.2946 74.6176 130.008 79.9949 153.476C81.3521 159.42 75.0471 164.316 69.6871 161.413C69.6355 161.378 69.5841 161.361 69.5325 161.327C67.5569 160.21 66.3027 158.149 66.0622 155.898C64.6363 141.982 58.7952 81.0633 62.6779 52.5107L69.292 50.3117L69.3092 50.2946Z" fill="#EFD97D"/>
<path d="M19.66 53.4041C19.66 53.4041 61.2004 73.6245 72.6077 158.939C72.6077 158.939 19.66 130.266 19.66 53.4041Z" fill="#EFD97D"/>
<path d="M117 67.3711C117 67.3711 83.9119 73.6245 72.5046 158.922C72.5046 158.922 117 144.216 117 67.3711Z" fill="#EFD97D"/>
<path d="M215.72 133.59C188.98 133.59 167 115.96 167 94.67C167 73.38 188.98 54.5701 215.72 54.5701C229.78 54.5701 242.26 59.62 251.57 67.05L239.09 75.86C232.75 72.1 225.33 68.4301 215.72 68.4301C198.29 68.4301 184.43 80.91 184.43 94.67C184.43 108.43 198.29 119.62 215.72 119.62C225.03 119.62 232.85 117.14 239.09 112.19L251.57 122.19C242.26 129.91 229.78 133.58 215.72 133.58V133.59Z" fill="#93B1A2"/>
<path d="M289.49 101.7V131.8H270.08V55.85H289.49V84.66H326.72V55.85H345.83V131.8H326.72V101.7H289.49Z" fill="#93B1A2"/>
<path d="M415.35 55.85L449.41 131.8H429.41L421.69 113.08H387.43L379.71 131.8H360.2L391.29 55.85H415.35ZM403.77 70.81L392.18 100.62H415.65L403.77 70.81Z" fill="#93B1A2"/>
<path d="M510.81 55.85C543.56 55.85 552.61 93.03 521.11 102.79L542.2 131.8H522.49L502.19 103.88H486.54V131.8H467.83V55.85H510.8H510.81ZM486.55 89.22H510.81C514.18 89.22 517.74 88.33 520.42 86.55C522.99 84.67 524.18 82.59 524.18 80.01C524.18 77.43 522.99 75.36 520.42 73.57C517.85 71.79 514.58 70.7 510.81 70.7H486.55V89.22Z" fill="#93B1A2"/>
<path d="M579.73 55.85V116.25H621.22V131.8H560.72V55.85H579.73Z" fill="#93B1A2"/>
<path d="M658.65 55.85V131.8H639.64V55.85H658.65Z" fill="#93B1A2"/>
<path d="M746.68 71.5H695.49V86.65H729.36V101.01H695.49V116.06H747.67V131.8H677.17V55.85H746.68V71.5Z" fill="#93B1A2"/>
<path d="M793.13 41V48.13C793.13 56.74 789.07 63.97 782.14 69.52C778.38 72.49 774.81 74.87 771.45 77.94L759.37 68.14C762.74 65.17 768.88 61.21 771.85 57.74C774.13 54.97 775.61 51.6 775.61 48.13V41H793.14H793.13Z" fill="#93B1A2"/>
<path d="M843.63 72.09C840.96 73.58 839.37 75.46 838.98 78.43C838.98 79.91 839.18 81.1 839.87 81.8C840.96 83.09 842.74 83.68 844.33 83.98C851.26 85.47 857.9 85.37 865.52 85.66H871.96C880.08 86.06 888 87.14 894.44 90.12C902.06 93.98 907.61 100.12 906.72 109.73C904.54 127.06 888.3 133.2 868.2 133.2C848.1 133.2 837.9 131.42 821.46 124.78L823.64 109.73C840.67 117.75 860.77 121.02 876.91 117.45C881.76 116.36 886.61 114.18 887.31 108.64C887.71 105.27 885.83 103.39 883.75 102.6C880.68 100.92 875.93 100.42 870.68 100.12H864.84C859 99.72 853.15 99.53 846.82 98.63C838.8 97.84 830.38 96.15 825.13 90.61C821.47 87.24 819.59 82.89 820.28 77.64C820.68 69.32 826.52 61.99 834.04 58.53C843.45 53.68 865.13 51.6 880.98 54.17C887.62 55.26 893.65 56.05 902.37 58.92L896.83 73.18C878.41 67.63 857.22 65.85 843.66 72.09H843.63Z" fill="#93B1A2"/>
</svg>
