<svg width="848" height="151" viewBox="0 0 848 151" fill="none" xmlns="http://www.w3.org/2000/svg">
<g clip-path="url(#clip0_23_601)">
<path d="M46.3407 48.2071C43.6435 47.9666 41.3758 46.094 39.6063 44.3417C36.8404 41.6102 34.4352 38.8958 32.305 35.7004L29.6077 31.646L26.5841 26.4749C25.7423 25.0318 25.0723 23.5371 24.3508 21.991C21.7051 16.2358 20.6571 10.2057 24.8833 5.72181C27.3228 3.12768 30.9649 2.59512 34.0229 4.75975C36.5827 6.5808 38.5755 9.00317 40.7057 11.666L41.2383 11.0475C40.3621 4.96592 46.272 0.121282 52.5941 0.825649C58.3665 1.4613 59.7065 6.99314 60.5826 12.9545C62.5067 7.33674 65.4445 2.68106 71.234 2.389C75.2541 2.18285 78.2605 4.86285 79.2397 8.64238C81.0264 15.5142 76.6457 22.661 72.2477 28.5193C70.65 30.6495 69.0522 32.6252 67.1797 34.515L65.2555 36.4391L60.4967 40.9058L58.1946 42.8128L53.2641 46.18C51.4946 47.3997 48.5741 48.4133 46.3407 48.2071Z" fill="#EFD97D"/>
<path d="M50.3092 38.2946C50.3092 38.2946 55.6176 118.008 60.9949 141.476C62.3521 147.42 56.0471 152.316 50.6871 149.413C50.6355 149.378 50.5841 149.361 50.5325 149.327C48.5569 148.21 47.3027 146.149 47.0622 143.898C45.6363 129.982 39.7952 69.0633 43.6779 40.5107L50.292 38.3117L50.3092 38.2946Z" fill="#EFD97D"/>
<path d="M0.660034 41.4041C0.660034 41.4041 42.2004 61.6245 53.6077 146.939C53.6077 146.939 0.660034 118.266 0.660034 41.4041Z" fill="#EFD97D"/>
<path d="M98 55.3711C98 55.3711 64.9119 61.6245 53.5046 146.922C53.5046 146.922 98 132.216 98 55.3711Z" fill="#EFD97D"/>
<path d="M201.571 118.598C176.559 118.598 156 102.107 156 82.1934C156 62.2794 176.559 44.6851 201.571 44.6851C214.723 44.6851 226.396 49.4087 235.104 56.3585L223.431 64.5991C217.501 61.0821 210.56 57.6493 201.571 57.6493C185.268 57.6493 172.304 69.3227 172.304 82.1934C172.304 95.0641 185.268 105.531 201.571 105.531C210.28 105.531 217.594 103.211 223.431 98.5811L235.104 107.935C226.396 115.156 214.723 118.589 201.571 118.589V118.598Z" fill="#86C5A5"/>
<path d="M270.574 88.7691V116.924H252.418V45.8823H270.574V72.8303H305.397V45.8823H323.272V116.924H305.397V88.7691H270.574Z" fill="#86C5A5"/>
<path d="M388.299 45.8823L420.158 116.924H401.451L394.23 99.4136H362.184L354.963 116.924H336.714L365.794 45.8823H388.299ZM377.468 59.8755L366.627 87.7589H388.58L377.468 59.8755Z" fill="#86C5A5"/>
<path d="M477.59 45.8823C508.223 45.8823 516.688 80.6594 487.224 89.7886L506.951 116.924H488.515L469.527 90.8082H454.888V116.924H437.387V45.8823H477.58H477.59ZM454.898 77.0956H477.59C480.742 77.0956 484.072 76.2632 486.579 74.5982C488.983 72.8397 490.096 70.8942 490.096 68.4809C490.096 66.0677 488.983 64.1314 486.579 62.4571C484.175 60.7922 481.116 59.7726 477.59 59.7726H454.898V77.0956Z" fill="#86C5A5"/>
<path d="M542.056 45.8823V102.379H580.864V116.924H524.274V45.8823H542.056Z" fill="#86C5A5"/>
<path d="M615.875 45.8823V116.924H598.094V45.8823H615.875Z" fill="#86C5A5"/>
<path d="M698.216 60.5209H650.334V74.6917H682.015V88.1237H650.334V102.201H699.142V116.924H633.198V45.8823H698.216V60.5209Z" fill="#86C5A5"/>
<path d="M741.664 31.9919V38.6611C741.664 46.7147 737.866 53.4774 731.384 58.6687C727.867 61.4467 724.528 63.6729 721.385 66.5445L710.085 57.3779C713.238 54.5999 718.981 50.8958 721.759 47.65C723.892 45.0591 725.276 41.9069 725.276 38.6611V31.9919H741.673H741.664Z" fill="#86C5A5"/>
<path d="M788.9 61.0727C786.402 62.4664 784.915 64.2249 784.55 67.003C784.55 68.3873 784.737 69.5004 785.383 70.1552C786.402 71.3618 788.067 71.9137 789.554 72.1943C796.037 73.588 802.247 73.4944 809.375 73.7657H815.399C822.994 74.1398 830.402 75.1501 836.426 77.9375C843.553 81.548 848.745 87.2912 847.912 96.2801C845.873 112.49 830.683 118.233 811.882 118.233C793.081 118.233 783.54 116.568 768.163 110.357L770.202 96.2801C786.131 103.782 804.932 106.84 820.029 103.501C824.565 102.482 829.102 100.443 829.757 95.2605C830.131 92.1084 828.372 90.3498 826.427 89.6109C823.555 88.0395 819.112 87.5718 814.202 87.2912H808.739C803.276 86.917 797.804 86.7393 791.884 85.8975C784.382 85.1585 776.506 83.5777 771.595 78.3958C768.172 75.2436 766.413 71.1748 767.059 66.2641C767.433 58.4818 772.896 51.6255 779.93 48.3891C788.731 43.8525 809.01 41.907 823.836 44.3109C830.047 45.3304 835.687 46.0694 843.843 48.7539L838.661 62.0923C821.432 56.901 801.611 55.236 788.928 61.0727H788.9Z" fill="#86C5A5"/>
</g>
<defs>
<clipPath id="clip0_23_601">
<rect width="848" height="151" fill="white"/>
</clipPath>
</defs>
</svg>
